<?xml version="1.0" standalone="no"?><!DOCTYPE svg PUBLIC "-//W3C//DTD SVG 1.1//EN" "http://www.w3.org/Graphics/SVG/1.1/DTD/svg11.dtd"><svg class="icon" style="" viewBox="0 0 1024 1024" version="1.1" xmlns="http://www.w3.org/2000/svg" p-id="6563" xmlns:xlink="http://www.w3.org/1999/xlink" width="32" height="32"><defs><style type="text/css"><![CDATA[

]]></style></defs><path d="M308.652226 556.08337c88.560502 0 155.377351 36.500727 224.390602 64.223072-72.604078 88.159515-145.204544 156.974077-224.390602 156.974077-70.010301 0-186.098074-23.936443-186.098074-109.303493C122.756452 593.779835 225.279277 556.08337 308.652226 556.08337L308.652226 556.08337zM1014.137868 97.924109l0 828.155394c0 48.465335-39.495491 87.960827-87.964439 87.960827L97.826572 1014.04033c-48.468948 0-87.964439-39.495491-87.964439-87.960827L9.862132 97.924109c0-48.465335 39.495491-87.960827 87.964439-87.960827l828.148169 0C974.443689 9.963282 1014.137868 49.458774 1014.137868 97.924109L1014.137868 97.924109zM1013.73688 683.1387c-70.010301-16.158724-204.041374-64.822747-331.69638-109.307105 27.725958-47.666972 50.658125-101.323474 67.214224-160.561293l3.193452-11.769534c3.193452-11.968221 5.982304-28.322021 8.774769-40.69123l-200.056784 0L561.166161 310.350102l251.318197 0L812.484358 260.284428l-251.119509 0L561.364849 159.159642l-100.926099 0 0 101.124787L209.322853 260.284428 209.322853 310.350102l250.917209 0 0 50.463049L259.583603 360.813152l0 50.062062 374.782699 0c-8.778381 45.275496-25.731856 90.955592-47.670585 130.649771-17.549538-5.787229-176.517717-52.457151-280.037593-52.457151-82.979186 0-220.601087 63.428321-220.601087 179.313794 0 114.090059 79.186058 178.313131 220.601087 178.313131 135.830099 0 235.556848-67.8139 316.538319-188.088563 153.780625 67.019149 296.795992 140.818966 390.536824 183.301997L1013.733267 683.1387 1013.73688 683.1387z" p-id="6564" fill="#00A0E9"></path></svg>