<?xml version="1.0" standalone="no"?><!DOCTYPE svg PUBLIC "-//W3C//DTD SVG 1.1//EN" "http://www.w3.org/Graphics/SVG/1.1/DTD/svg11.dtd"><svg class="icon" style="" viewBox="0 0 1024 1024" version="1.1" xmlns="http://www.w3.org/2000/svg" p-id="9141" xmlns:xlink="http://www.w3.org/1999/xlink" width="32" height="32"><defs><style type="text/css"><![CDATA[

]]></style></defs><path d="M512.012288 51.193856C257.499136 51.193856 51.2 257.50528 51.2 511.993856c0 254.500864 206.299136 460.812288 460.812288 460.812288C766.500864 972.806144 972.8 766.49472 972.8 511.993856 972.8 257.50528 766.500864 51.193856 512.012288 51.193856zM273.289216 378.042368c2.390016-20.65408 21.393408-36.72064 44.519424-36.72064l0-0.032768L706.1504 341.28896c23.023616 0 42.047488 16.01536 44.541952 36.585472 0.186368 1.492992 0.247808 3.039232 0.247808 4.585472l-238.97088 141.756416-238.948352-141.756416C273.022976 380.936192 273.104896 379.50464 273.289216 378.042368zM750.979072 641.527808c0 22.734848-20.076544 41.170944-44.83072 41.170944L317.82912 682.698752c-24.754176 0-44.808192-18.436096-44.808192-41.170944L273.020928 419.016704l238.968832 141.756416 238.989312-141.756416L750.979072 641.527808z" p-id="9142" fill="#FA7171"></path></svg>