<?xml version="1.0" standalone="no"?><!DOCTYPE svg PUBLIC "-//W3C//DTD SVG 1.1//EN" "http://www.w3.org/Graphics/SVG/1.1/DTD/svg11.dtd"><svg class="icon" style="" viewBox="0 0 1024 1024" version="1.1" xmlns="http://www.w3.org/2000/svg" p-id="8321" xmlns:xlink="http://www.w3.org/1999/xlink" width="32" height="32"><defs><style type="text/css"><![CDATA[

]]></style></defs><path d="M594.656256 513.204224c-14.513152 0-29.108224 14.595072-29.108224 29.080576 0 14.733312 14.595072 29.135872 29.108224 29.135872 22.003712 0 36.40832-14.40256 36.40832-29.135872C631.064576 527.798272 616.660992 513.204224 594.656256 513.204224zM754.716672 513.204224c-14.404608 0-28.918784 14.595072-28.918784 29.080576 0 14.733312 14.514176 29.135872 28.918784 29.135872 21.8112 0 36.405248-14.40256 36.405248-29.135872C791.12192 527.798272 776.527872 513.204224 754.716672 513.204224zM296.35072 302.142464c-21.783552 0-43.813888 14.37696-43.813888 36.297728 0 21.810176 22.030336 36.406272 43.813888 36.406272 21.8112 0 36.296704-14.596096 36.296704-36.406272C332.648448 316.519424 318.16192 302.142464 296.35072 302.142464zM500.031488 374.846464c21.894144 0 36.407296-14.596096 36.407296-36.406272 0-21.920768-14.513152-36.297728-36.407296-36.297728-21.8112 0-43.731968 14.37696-43.731968 36.297728C456.29952 360.250368 478.220288 374.846464 500.031488 374.846464zM511.020032 3.207168c-281.525248 0-509.997056 228.36224-509.997056 509.996032 0 281.633792 228.471808 509.996032 509.997056 509.996032 281.549824 0 509.913088-228.363264 509.913088-509.996032C1020.93312 231.569408 792.57088 3.207168 511.020032 3.207168zM390.893568 673.455104c-36.325376 0-65.51552-7.407616-101.922816-14.596096l-101.732352 51.028992 29.0816-87.573504c-72.812544-50.893824-116.435968-116.544512-116.435968-196.438016 0-138.466304 131.03104-247.49568 291.008512-247.49568 143.05792 0 268.404736 87.08096 293.604352 204.338176-9.237504-1.038336-18.584576-1.69472-28.014592-1.69472-138.248192 0-247.386112 103.15264-247.386112 230.301696 0 21.129216 3.279872 41.520128 8.96512 60.980224C409.069568 673.014784 400.022528 673.455104 390.893568 673.455104zM820.122624 775.375872l21.919744 72.76032-79.809536-43.732992c-29.110272 7.297024-58.353664 14.59712-87.327744 14.59712-138.466304 0-247.494656-94.626816-247.494656-211.171328 0-116.355072 109.028352-211.171328 247.494656-211.171328 130.705408 0 247.168 94.816256 247.168 211.171328C922.072064 673.455104 878.559232 731.590656 820.122624 775.375872z" p-id="8322" fill="#51C332"></path></svg>